<svg width="32" height="32" viewBox="0 0 32 32" fill="none" xmlns="http://www.w3.org/2000/svg">
<rect width="32" height="32" rx="4" fill="white"/>
<path d="M15.6309 19.58H17.4309V22H15.3909C14.3509 22 13.5043 21.7067 12.8509 21.12C12.1176 21.7067 11.2176 22 10.1509 22H2.61094L3.87094 19.58H6.51094V13.04L9.03094 11.7V19.58H10.0109C10.6243 19.58 11.0576 19.4467 11.3109 19.18C11.5776 18.9133 11.7109 18.46 11.7109 17.82V10.44L14.2309 9.1V18.14C14.2309 18.66 14.3376 19.0333 14.5509 19.26C14.7643 19.4733 15.1243 19.58 15.6309 19.58ZM18.5998 15.88C18.9332 14.76 19.5265 13.88 20.3798 13.24C21.2465 12.6 22.2465 12.28 23.3798 12.28C24.8998 12.28 26.1465 12.78 27.1198 13.78C28.0265 14.7133 28.4798 15.92 28.4798 17.4V18.28C28.4798 19.4933 28.0998 20.44 27.3398 21.12C26.6732 21.7067 25.8065 22 24.7398 22H22.2198C21.7665 22 21.3398 21.9333 20.9398 21.8C20.5265 21.9333 20.0998 22 19.6598 22H16.2398V19.58H18.2798C18.0532 19.0867 17.9398 18.5467 17.9398 17.96C17.9398 17.1333 18.1598 16.44 18.5998 15.88ZM25.9798 18.12V17.4C25.9798 16.56 25.7332 15.8867 25.2398 15.38C24.7598 14.8733 24.1198 14.62 23.3198 14.62C22.7732 14.62 22.2998 14.74 21.8998 14.98C22.5265 15.1667 23.0198 15.5267 23.3798 16.06C23.7532 16.5933 23.9398 17.2267 23.9398 17.96C23.9398 18.5467 23.8265 19.0867 23.5998 19.58H24.6998C25.1932 19.58 25.5265 19.48 25.6998 19.28C25.8865 19.0667 25.9798 18.68 25.9798 18.12ZM20.9398 19.4C21.7932 19.12 22.2198 18.5667 22.2198 17.74C22.2198 17.3267 22.0998 17 21.8598 16.76C21.6332 16.5067 21.3265 16.38 20.9398 16.38C20.5532 16.38 20.2398 16.5067 19.9998 16.76C19.7732 17 19.6598 17.3267 19.6598 17.74C19.6598 18.5667 20.0865 19.12 20.9398 19.4Z" fill="#273469"/>
</svg>
