<svg width="512" height="512" viewBox="0 0 512 512" fill="none" xmlns="http://www.w3.org/2000/svg">
<rect width="512" height="512" rx="64" fill="white"/>
<g filter="url(#filter0_d)">
<path d="M250.686 295.152H276.606V330H247.23C232.254 330 220.062 325.776 210.654 317.328C200.094 325.776 187.134 330 171.774 330H63.1975L81.3415 295.152H119.358V200.976L155.646 181.68V295.152H169.758C178.59 295.152 184.83 293.232 188.478 289.392C192.318 285.552 194.238 279.024 194.238 269.808V163.536L230.526 144.24V274.416C230.526 281.904 232.062 287.28 235.134 290.544C238.206 293.616 243.39 295.152 250.686 295.152ZM293.438 241.872C298.238 225.744 306.782 213.072 319.07 203.856C331.55 194.64 345.95 190.032 362.27 190.032C384.158 190.032 402.11 197.232 416.126 211.632C429.182 225.072 435.71 242.448 435.71 263.76V276.432C435.71 293.904 430.238 307.536 419.294 317.328C409.694 325.776 397.214 330 381.854 330H345.566C339.038 330 332.894 329.04 327.134 327.12C321.182 329.04 315.038 330 308.702 330H259.454V295.152H288.83C285.566 288.048 283.934 280.272 283.934 271.824C283.934 259.92 287.102 249.936 293.438 241.872ZM399.71 274.128V263.76C399.71 251.664 396.158 241.968 389.054 234.672C382.142 227.376 372.926 223.728 361.406 223.728C353.534 223.728 346.718 225.456 340.958 228.912C349.982 231.6 357.086 236.784 362.27 244.464C367.646 252.144 370.334 261.264 370.334 271.824C370.334 280.272 368.702 288.048 365.438 295.152H381.278C388.382 295.152 393.182 293.712 395.678 290.832C398.366 287.76 399.71 282.192 399.71 274.128ZM327.134 292.56C339.422 288.528 345.566 280.56 345.566 268.656C345.566 262.704 343.838 258 340.382 254.544C337.118 250.896 332.702 249.072 327.134 249.072C321.566 249.072 317.054 250.896 313.598 254.544C310.334 258 308.702 262.704 308.702 268.656C308.702 280.56 314.846 288.528 327.134 292.56Z" fill="#273469"/>
</g>
<defs>
<filter id="filter0_d" x="59.1975" y="144.24" width="380.512" height="193.76" filterUnits="userSpaceOnUse" color-interpolation-filters="sRGB">
<feFlood flood-opacity="0" result="BackgroundImageFix"/>
<feColorMatrix in="SourceAlpha" type="matrix" values="0 0 0 0 0 0 0 0 0 0 0 0 0 0 0 0 0 0 127 0"/>
<feOffset dy="4"/>
<feGaussianBlur stdDeviation="2"/>
<feColorMatrix type="matrix" values="0 0 0 0 0 0 0 0 0 0 0 0 0 0 0 0 0 0 0.25 0"/>
<feBlend mode="normal" in2="BackgroundImageFix" result="effect1_dropShadow"/>
<feBlend mode="normal" in="SourceGraphic" in2="effect1_dropShadow" result="shape"/>
</filter>
</defs>
</svg>
